<svg height="143.49393mm" viewBox="0 0 252.93042 143.49393" width="252.93042mm" xmlns="http://www.w3.org/2000/svg" xmlns:xlink="http://www.w3.org/1999/xlink"><marker id="a" orient="auto" overflow="visible" refX="0" refY="0"><path d="m8.7185878 4.0337352-10.9258773-4.01772194 10.9258779-4.01772106c-1.7454984 2.3720609-1.7354408 5.6174519-.0000006 8.035443z" fill-rule="evenodd" stroke="#000" stroke-linejoin="round" stroke-width=".625" transform="matrix(-1.1 0 0 -1.1 -1.1 0)"/></marker><marker id="b" orient="auto" overflow="visible" refX="0" refY="0"><path d="m8.7185878 4.0337352-10.9258773-4.01772194 10.9258779-4.01772106c-1.7454984 2.3720609-1.7354408 5.6174519-.0000006 8.035443z" fill-rule="evenodd" stroke="#000" stroke-linejoin="round" stroke-width=".625" transform="matrix(-1.1 0 0 -1.1 -1.1 0)"/></marker><marker id="c" orient="auto" overflow="visible" refX="0" refY="0"><path d="m8.7185878 4.0337352-10.9258773-4.01772194 10.9258779-4.01772106c-1.7454984 2.3720609-1.7354408 5.6174519-.0000006 8.035443z" fill-rule="evenodd" stroke="#000" stroke-linejoin="round" stroke-width=".625" transform="matrix(-1.1 0 0 -1.1 -1.1 0)"/></marker><marker id="d" orient="auto" overflow="visible" refX="0" refY="0"><path d="m8.7185878 4.0337352-10.9258773-4.01772194 10.9258779-4.01772106c-1.7454984 2.3720609-1.7354408 5.6174519-.0000006 8.035443z" fill-rule="evenodd" stroke="#000" stroke-linejoin="round" stroke-width=".625" transform="matrix(-1.1 0 0 -1.1 -1.1 0)"/></marker><marker id="e" orient="auto" overflow="visible" refX="0" refY="0"><path d="m8.7185878 4.0337352-10.9258773-4.01772194 10.9258779-4.01772106c-1.7454984 2.3720609-1.7354408 5.6174519-.0000006 8.035443z" fill-rule="evenodd" stroke="#000" stroke-linejoin="round" stroke-width=".625" transform="matrix(-1.1 0 0 -1.1 -1.1 0)"/></marker><marker id="f" orient="auto" overflow="visible" refX="0" refY="0"><path d="m8.7185878 4.0337352-10.9258773-4.01772194 10.9258779-4.01772106c-1.7454984 2.3720609-1.7354408 5.6174519-.0000006 8.035443z" fill-rule="evenodd" stroke="#000" stroke-linejoin="round" stroke-width=".625" transform="matrix(-1.1 0 0 -1.1 -1.1 0)"/></marker><g transform="translate(-23.410806 20.23359)"><rect fill="#fe8081" height="20.379301" rx="1.469982" ry="1.937692" stroke="#6c645a" stroke-width=".396875" width="28.865108" x="23.98744" y="58.528763"/><g fill="#32ff9a" stroke="#6c645a" transform="translate(-34.151492 -17.897561)"><path d="m61.705637 113.14964v25.35969c1.455809 2.43326 9.992841 2.43949 11.354567 2.44976 1.335111.0129 10.450941-.31136 10.86268-2.44976v-25.35969z" stroke-linejoin="round" stroke-width=".396875"/><path d="m78.778304 110.77238a11.102023 2.7433388 0 0 1 3.399007 3.78761 11.102023 2.7433388 0 0 1 -15.328003.84 11.102023 2.7433388 0 0 1 -3.399786-3.78757 11.102023 2.7433388 0 0 1 15.32783-.84019" stroke-width=".391606"/></g><path d="m38.517817 80.244411.03575 9.4641" fill="none" marker-end="url(#f)" stroke="#000" stroke-width=".265"/><rect fill="#ffd320" height="11.034212" rx="1.475295" ry="1.049148" stroke="#6c645a" stroke-width=".293" width="28.969425" x="114.70206" y="-20.08709"/><g fill="none" stroke="#000" stroke-width=".265"><path d="m137.41108-8.2549229 26.11612 22.0407399" marker-end="url(#e)"/><path d="m128.74494-8.2549229.0709 22.0407399" marker-end="url(#d)"/><path d="m120.68356-8.2549229-26.137023 22.0407399" marker-end="url(#c)"/></g><text style="font-stretch:semi-condensed;font-size:4.938889;font-family:DejaVu Sans;letter-spacing:0;word-spacing:0;stroke-width:.264583" x="145.38434" y="-15.530954"><tspan font-family="DejaVu Sans" font-size="4.938889" font-stretch="semi-condensed" stroke-width=".264583" x="145.38434" y="-15.530954">Caching &amp;</tspan><tspan font-family="DejaVu Sans" font-size="4.938889" font-stretch="semi-condensed" stroke-width=".264583" x="145.38434" y="-9.357343">Routing</tspan></text><text style="font-stretch:semi-condensed;font-size:4.938889;font-family:DejaVu Sans;letter-spacing:0;word-spacing:0;stroke-width:.264583" x="54.166435" y="100.05637"><tspan font-family="DejaVu Sans" font-size="4.938889" font-stretch="semi-condensed" stroke-width=".264583" x="54.166435" y="100.05637">Accounts</tspan><tspan font-family="DejaVu Sans" font-size="4.938889" font-stretch="semi-condensed" stroke-width=".264583" x="54.166435" y="106.22999">Database</tspan></text><path d="m24.111328-21.636719c-2.673189 0-4.826172 1.732487-4.826172 3.884766v42.943359c0 2.152279 2.152983 3.884766 4.826172 3.884766h332.492192 115.81054 181.42188 151.07031c2.67319 0 4.82617-1.732487 4.82617-3.884766v-42.943359c0-2.152279-2.15298-3.884766-4.82617-3.884766h-151.07031-181.42188-115.81054z" fill="#ffa7ce" stroke="#6c645a" stroke-linejoin="round" stroke-width="1.107402" transform="matrix(.26458333 0 0 .26458333 23.789003 21.666414)"/><text style="font-stretch:semi-condensed;font-size:4.938889;font-family:DejaVu Sans;letter-spacing:0;word-spacing:0;stroke-width:.264583" x="240.10262" y="20.773754"><tspan font-family="DejaVu Sans" font-size="4.938889" font-stretch="semi-condensed" stroke-width=".264583" x="240.10262" y="20.773754">Online Shopping</tspan><tspan font-family="DejaVu Sans" font-size="4.938889" font-stretch="semi-condensed" stroke-width=".264583" x="240.10262" y="26.947365">Service</tspan></text><rect fill="#ffd320" height="11.034212" rx="1.475295" ry="1.049148" stroke="#6c645a" stroke-width=".293" width="28.969425" x="23.557306" y="40.333748"/><text style="font-stretch:semi-condensed;font-size:4.938889;font-family:DejaVu Sans;letter-spacing:0;word-spacing:0;stroke-width:.264583" x="54.166435" y="66.849548"><tspan font-family="DejaVu Sans" font-size="4.938889" font-stretch="semi-condensed" stroke-width=".264583" x="54.166435" y="66.849548">Accounts</tspan><tspan font-family="DejaVu Sans" font-size="4.938889" font-stretch="semi-condensed" stroke-width=".264583" x="54.166435" y="73.023163">Service</tspan></text><path d="m38.553571 52.510676v4.535715" fill="none" marker-end="url(#b)" stroke="#000" stroke-width=".265"/><path d="m38.553571 30.777042v8.504467" fill="none" marker-end="url(#a)" stroke="#000" stroke-width=".265"/><rect fill="#fe8081" height="20.379301" rx="1.469982" ry="1.937692" stroke="#6c645a" stroke-width=".396875" width="28.865108" x="82.51947" y="58.528759"/><g fill="#32ff9a" stroke="#6c645a" transform="translate(24.380535 -17.897566)"><path d="m61.705637 113.14964v25.35969c1.455809 2.43326 9.992841 2.43949 11.354567 2.44976 1.335111.0129 10.450941-.31136 10.86268-2.44976v-25.35969z" stroke-linejoin="round" stroke-width=".396875"/><path d="m78.778304 110.77238a11.102023 2.7433388 0 0 1 3.399007 3.78761 11.102023 2.7433388 0 0 1 -15.328003.84 11.102023 2.7433388 0 0 1 -3.399786-3.78757 11.102023 2.7433388 0 0 1 15.32783-.84019" stroke-width=".391606"/></g><path d="m97.049844 80.244406.03575 9.4641" fill="none" marker-end="url(#f)" stroke="#000" stroke-width=".265"/><text style="font-stretch:semi-condensed;font-size:4.938889;font-family:DejaVu Sans;letter-spacing:0;word-spacing:0;stroke-width:.264583" x="113.23117" y="100.05637"><tspan font-family="DejaVu Sans" font-size="4.938889" font-stretch="semi-condensed" stroke-width=".264583" x="113.23117" y="100.05637">Products</tspan><tspan font-family="DejaVu Sans" font-size="4.938889" font-stretch="semi-condensed" stroke-width=".264583" x="113.23117" y="106.22998">Database</tspan></text><rect fill="#ffd320" height="11.034212" rx="1.475295" ry="1.049148" stroke="#6c645a" stroke-width=".293" width="28.969425" x="82.089333" y="40.333744"/><text style="font-stretch:semi-condensed;font-size:4.938889;font-family:DejaVu Sans;letter-spacing:0;word-spacing:0;stroke-width:.264583" x="113.41686" y="67.00148"><tspan font-family="DejaVu Sans" font-size="4.938889" font-stretch="semi-condensed" stroke-width=".264583" x="113.41686" y="67.00148">Product</tspan><tspan font-family="DejaVu Sans" font-size="4.938889" font-stretch="semi-condensed" stroke-width=".264583" x="113.41686" y="73.175095">Catalog</tspan></text><path d="m97.085598 52.510671v4.535715" fill="none" marker-end="url(#b)" stroke="#000" stroke-width=".265"/><path d="m97.085598 30.777037v8.504467" fill="none" marker-end="url(#a)" stroke="#000" stroke-width=".265"/><rect fill="#fe8081" height="20.379301" rx="1.469982" ry="1.937692" stroke="#6c645a" stroke-width=".396875" width="28.865108" x="144.65964" y="58.528759"/><g fill="#32ff9a" stroke="#6c645a" transform="translate(86.5207 -17.897566)"><path d="m61.705637 113.14964v25.35969c1.455809 2.43326 9.992841 2.43949 11.354567 2.44976 1.335111.0129 10.450941-.31136 10.86268-2.44976v-25.35969z" stroke-linejoin="round" stroke-width=".396875"/><path d="m78.778304 110.77238a11.102023 2.7433388 0 0 1 3.399007 3.78761 11.102023 2.7433388 0 0 1 -15.328003.84 11.102023 2.7433388 0 0 1 -3.399786-3.78757 11.102023 2.7433388 0 0 1 15.32783-.84019" stroke-width=".391606"/></g><path d="m159.19001 80.244406.0358 9.4641" fill="none" marker-end="url(#f)" stroke="#000" stroke-width=".265"/><text style="font-stretch:semi-condensed;font-size:4.938889;font-family:DejaVu Sans;letter-spacing:0;word-spacing:0;stroke-width:.264583" x="174.75522" y="100.05637"><tspan font-family="DejaVu Sans" font-size="4.938889" font-stretch="semi-condensed" stroke-width=".264583" x="174.75522" y="100.05637">Cart</tspan><tspan font-family="DejaVu Sans" font-size="4.938889" font-stretch="semi-condensed" stroke-width=".264583" x="174.75522" y="106.22999">Database</tspan></text><rect fill="#ffd320" height="11.034212" rx="1.475295" ry="1.049148" stroke="#6c645a" stroke-width=".293" width="28.969425" x="144.22949" y="40.333744"/><text style="font-stretch:semi-condensed;font-size:4.938889;font-family:DejaVu Sans;letter-spacing:0;word-spacing:0;stroke-width:.264583" x="174.75522" y="66.914665"><tspan font-family="DejaVu Sans" font-size="4.938889" font-stretch="semi-condensed" stroke-width=".264583" x="174.75522" y="66.914665">Cart</tspan><tspan font-family="DejaVu Sans" font-size="4.938889" font-stretch="semi-condensed" stroke-width=".264583" x="174.75522" y="73.08828">Service</tspan></text><path d="m159.22576 52.510671v4.535715" fill="none" marker-end="url(#b)" stroke="#000" stroke-width=".265"/><path d="m159.22576 30.777037v8.504467" fill="none" marker-end="url(#a)" stroke="#000" stroke-width=".265"/><rect fill="#fe8081" height="20.379301" rx="1.469982" ry="1.937692" stroke="#6c645a" stroke-width=".396875" width="28.865108" x="209.4725" y="58.528759"/><g fill="#32ff9a" stroke="#6c645a" transform="translate(151.33356 -17.897566)"><path d="m61.705637 113.14964v25.35969c1.455809 2.43326 9.992841 2.43949 11.354567 2.44976 1.335111.0129 10.450941-.31136 10.86268-2.44976v-25.35969z" stroke-linejoin="round" stroke-width=".396875"/><path d="m78.778304 110.77238a11.102023 2.7433388 0 0 1 3.399007 3.78761 11.102023 2.7433388 0 0 1 -15.328003.84 11.102023 2.7433388 0 0 1 -3.399786-3.78757 11.102023 2.7433388 0 0 1 15.32783-.84019" stroke-width=".391606"/></g><path d="m224.00287 80.244406.0358 9.4641" fill="none" marker-end="url(#f)" stroke="#000" stroke-width=".265"/><text style="font-stretch:semi-condensed;font-size:4.938889;font-family:DejaVu Sans;letter-spacing:0;word-spacing:0;stroke-width:.264583" x="240.10262" y="100.05637"><tspan font-family="DejaVu Sans" font-size="4.938889" font-stretch="semi-condensed" stroke-width=".264583" x="240.10262" y="100.05637">Order</tspan><tspan font-family="DejaVu Sans" font-size="4.938889" font-stretch="semi-condensed" stroke-width=".264583" x="240.10262" y="106.22999">Database</tspan></text><rect fill="#ffd320" height="11.034212" rx="1.475295" ry="1.049148" stroke="#6c645a" stroke-width=".293" width="28.969425" x="209.04236" y="40.333744"/><text style="font-stretch:semi-condensed;font-size:4.938889;font-family:DejaVu Sans;letter-spacing:0;word-spacing:0;stroke-width:.264583" x="240.10262" y="67.00148"><tspan font-family="DejaVu Sans" font-size="4.938889" font-stretch="semi-condensed" stroke-width=".264583" x="240.10262" y="67.00148">Order</tspan><tspan font-family="DejaVu Sans" font-size="4.938889" font-stretch="semi-condensed" stroke-width=".264583" x="240.10262" y="73.175095">Service</tspan></text><text style="font-stretch:semi-condensed;font-size:4.938889;font-family:DejaVu Sans;letter-spacing:0;word-spacing:0;stroke-width:.264583" x="240.10262" y="44.133926"><tspan font-family="DejaVu Sans" font-size="4.938889" font-stretch="semi-condensed" stroke-width=".264583" x="240.10262" y="44.133926">Caching &amp;</tspan><tspan font-family="DejaVu Sans" font-size="4.938889" font-stretch="semi-condensed" stroke-width=".264583" x="240.10262" y="50.307537">Routing</tspan></text><path d="m224.03862 52.510671v4.535715" fill="none" marker-end="url(#b)" stroke="#000" stroke-width=".265"/><path d="m224.03862 30.777037v8.504467" fill="none" marker-end="url(#a)" stroke="#000" stroke-width=".265"/><text style="font-stretch:semi-condensed;font-size:4.938889;font-family:DejaVu Sans;letter-spacing:0;word-spacing:0;stroke-width:.264583" x="174.75522" y="44.133926"><tspan font-family="DejaVu Sans" font-size="4.938889" font-stretch="semi-condensed" stroke-width=".264583" x="174.75522" y="44.133926">Caching &amp;</tspan><tspan font-family="DejaVu Sans" font-size="4.938889" font-stretch="semi-condensed" stroke-width=".264583" x="174.75522" y="50.307537">Routing</tspan></text><text style="font-stretch:semi-condensed;font-size:4.938889;font-family:DejaVu Sans;letter-spacing:0;word-spacing:0;stroke-width:.264583" x="113.41686" y="44.133926"><tspan font-family="DejaVu Sans" font-size="4.938889" font-stretch="semi-condensed" stroke-width=".264583" x="113.41686" y="44.133926">Caching &amp;</tspan><tspan font-family="DejaVu Sans" font-size="4.938889" font-stretch="semi-condensed" stroke-width=".264583" x="113.41686" y="50.307537">Routing</tspan></text><text style="font-stretch:semi-condensed;font-size:4.938889;font-family:DejaVu Sans;letter-spacing:0;word-spacing:0;stroke-width:.264583" x="53.949394" y="44.133926"><tspan font-family="DejaVu Sans" font-size="4.938889" font-stretch="semi-condensed" stroke-width=".264583" x="53.949394" y="44.133926">Caching &amp;</tspan><tspan font-family="DejaVu Sans" font-size="4.938889" font-stretch="semi-condensed" stroke-width=".264583" x="53.949394" y="50.307537">Routing</tspan></text></g></svg>