<svg height="112.67611mm" viewBox="0 0 123.64878 112.67611" width="123.64878mm" xmlns="http://www.w3.org/2000/svg" xmlns:xlink="http://www.w3.org/1999/xlink"><marker id="a" orient="auto" overflow="visible" refX="0" refY="0"><path d="m8.7185878 4.0337352-10.9258773-4.01772194 10.9258779-4.01772106c-1.7454984 2.3720609-1.7354408 5.6174519-.0000006 8.035443z" fill-rule="evenodd" stroke="#000" stroke-linejoin="round" stroke-width=".625" transform="matrix(-1.1 0 0 -1.1 -1.1 0)"/></marker><marker id="b" orient="auto" overflow="visible" refX="0" refY="0"><path d="m8.7185878 4.0337352-10.9258773-4.01772194 10.9258779-4.01772106c-1.7454984 2.3720609-1.7354408 5.6174519-.0000006 8.035443z" fill-rule="evenodd" stroke="#000" stroke-linejoin="round" stroke-width=".625" transform="matrix(-1.1 0 0 -1.1 -1.1 0)"/></marker><marker id="c" orient="auto" overflow="visible" refX="0" refY="0"><path d="m8.7185878 4.0337352-10.9258773-4.01772194 10.9258779-4.01772106c-1.7454984 2.3720609-1.7354408 5.6174519-.0000006 8.035443z" fill-rule="evenodd" stroke="#000" stroke-linejoin="round" stroke-width=".625" transform="matrix(-1.1 0 0 -1.1 -1.1 0)"/></marker><marker id="d" orient="auto" overflow="visible" refX="0" refY="0"><path d="m8.7185878 4.0337352-10.9258773-4.01772194 10.9258779-4.01772106c-1.7454984 2.3720609-1.7354408 5.6174519-.0000006 8.035443z" fill-rule="evenodd" stroke="#000" stroke-linejoin="round" stroke-width=".625" transform="matrix(-1.1 0 0 -1.1 -1.1 0)"/></marker><marker id="e" orient="auto" overflow="visible" refX="0" refY="0"><path d="m8.7185878 4.0337352-10.9258773-4.01772194 10.9258779-4.01772106c-1.7454984 2.3720609-1.7354408 5.6174519-.0000006 8.035443z" fill-rule="evenodd" stroke="#000" stroke-linejoin="round" stroke-width=".625" transform="matrix(-1.1 0 0 -1.1 -1.1 0)"/></marker><marker id="f" orient="auto" overflow="visible" refX="0" refY="0"><path d="m8.7185878 4.0337352-10.9258773-4.01772194 10.9258779-4.01772106c-1.7454984 2.3720609-1.7354408 5.6174519-.0000006 8.035443z" fill-rule="evenodd" stroke="#000" stroke-linejoin="round" stroke-width=".625" transform="matrix(-1.1 0 0 -1.1 -1.1 0)"/></marker><g transform="translate(-23.789003 -21.666414)"><g stroke="#6c645a"><rect fill="#fe8081" height="20.379301" rx="1.469982" ry="1.937692" stroke-width=".396875" width="28.865108" x="23.98744" y="58.528763"/><rect fill="#fe8081" height="20.379301" rx="1.469982" ry="1.937692" stroke-width=".396875" width="28.865108" x="58.598846" y="58.528763"/><rect fill="#fe8081" height="20.379301" rx="1.469982" ry="1.937692" stroke-width=".396875" width="28.865108" x="93.210251" y="58.528763"/><g fill="#32ff9a" transform="translate(-.133635 -6.815373)"><path d="m61.705637 113.14964v25.35969c1.455809 2.43326 9.992841 2.43949 11.354567 2.44976 1.335111.0129 10.450941-.31136 10.86268-2.44976v-25.35969z" stroke-linejoin="round" stroke-width=".396875"/><path d="m78.778304 110.77238a11.102023 2.7433388 0 0 1 3.399007 3.78761 11.102023 2.7433388 0 0 1 -15.328003.84 11.102023 2.7433388 0 0 1 -3.399786-3.78757 11.102023 2.7433388 0 0 1 15.32783-.84019" stroke-width=".391606"/></g></g><path d="m72.964581 80.244411v21.412759" fill="none" marker-end="url(#f)" stroke="#000" stroke-width=".265"/><path d="m107.63814 80.244411-26.292969 21.412759" fill="none" marker-end="url(#e)" stroke="#000" stroke-width=".265"/><path d="m38.517817 80.244411 26.021616 21.412759" fill="none" marker-end="url(#d)" stroke="#000" stroke-width=".265"/><rect fill="#ffd320" height="11.034212" rx="1.475295" ry="1.049148" stroke="#6c645a" stroke-width=".293" width="28.969425" x="58.709091" y="21.812914"/><path d="m81.418115 33.645081 26.116115 22.04074" fill="none" marker-end="url(#c)" stroke="#000" stroke-width=".265"/><path d="m72.751969 33.645081.07087 22.04074" fill="none" marker-end="url(#b)" stroke="#000" stroke-width=".265"/><path d="m64.690595 33.645081-26.137024 22.04074" fill="none" marker-end="url(#a)" stroke="#000" stroke-width=".265"/><text style="font-stretch:semi-condensed;font-size:4.938889;font-family:DejaVu Sans;letter-spacing:0;word-spacing:0;stroke-width:.264583" x="89.391365" y="26.369049"><tspan font-family="DejaVu Sans" font-size="4.938889" font-stretch="semi-condensed" stroke-width=".264583" x="89.391365" y="26.369049">Caching &amp;</tspan><tspan font-family="DejaVu Sans" font-size="4.938889" font-stretch="semi-condensed" stroke-width=".264583" x="89.391365" y="32.54266">Routing</tspan></text><text style="font-stretch:semi-condensed;font-size:4.938889;font-family:DejaVu Sans;letter-spacing:0;word-spacing:0;stroke-width:.264583" x="126.43304" y="66.434525"><tspan font-family="DejaVu Sans" font-size="4.938889" font-stretch="semi-condensed" stroke-width=".264583" x="126.43304" y="66.434525">App</tspan><tspan font-family="DejaVu Sans" font-size="4.938889" font-stretch="semi-condensed" stroke-width=".264583" x="126.43304" y="72.608139">Instances</tspan></text><text style="font-stretch:semi-condensed;font-size:4.938889;font-family:DejaVu Sans;letter-spacing:0;word-spacing:0;stroke-width:.264583" x="85.233635" y="117.08334"><tspan font-family="DejaVu Sans" font-size="4.938889" font-stretch="semi-condensed" stroke-width=".264583" x="85.233635" y="117.08334">Shared</tspan><tspan font-family="DejaVu Sans" font-size="4.938889" font-stretch="semi-condensed" stroke-width=".264583" x="85.233635" y="123.25696">Database</tspan></text></g></svg>