<svg version="1.1" xmlns="http://www.w3.org/2000/svg" viewBox="0 0 1212.0925600062656 869.698124646196" width="3636.2776800187967" height="2609.094373938588">
  <!-- svg-source:excalidraw -->
  
  <defs>
    <style>
      @font-face {
        font-family: "Virgil";
        src: url("https://excalidraw.com/Virgil.woff2");
      }
      @font-face {
        font-family: "Cascadia";
        src: url("https://excalidraw.com/Cascadia.woff2");
      }
    </style>
  </defs>
  <g stroke-linecap="round"><g transform="translate(139.70208962667243 215.21049909158546) rotate(0 0 290.6757407625282)"><path d="M0 0 C0 96.89, 0 484.46, 0 581.35 M0 0 C0 96.89, 0 484.46, 0 581.35" stroke="#495057" stroke-width="4" fill="none"></path></g></g><g stroke-linecap="round"><g transform="translate(1040.559709649776 796.1816158717584) rotate(0 -450.32487611588715 0)"><path d="M0 0 C-150.11 0, -750.54 0, -900.65 0 M0 0 C-150.11 0, -750.54 0, -900.65 0" stroke="#495057" stroke-width="4" fill="none"></path></g></g><g transform="translate(127.21327562580723 806.5397740128919) rotate(0 64.63572179276741 26.579175316652027)"><text x="64.63572179276747" y="43.15835063330408" font-family="Cascadia, Segoe UI Emoji" font-size="43.493195972703354px" fill="#495057" text-anchor="middle" style="white-space: pre;" direction="ltr">Day 0</text></g><g stroke-linecap="round"><g transform="translate(185.6530155266746 793.079535029729) rotate(0 418.21533075104867 -22.925138009727107)"><path d="M0 0 C69.71 -1.58, 278.82 -1.85, 418.23 -9.49 C557.64 -17.14, 766.73 -39.79, 836.43 -45.85 M0 0 C69.71 -1.58, 278.82 -1.85, 418.23 -9.49 C557.64 -17.14, 766.73 -39.79, 836.43 -45.85" stroke="#364fc7" stroke-width="4" fill="none"></path></g></g><g transform="translate(922.4576962445531 627.0673929298496) rotate(0 139.6223630109273 43.94671098048866)"><text x="139.62236301092736" y="35.94671098048856" font-family="Cascadia, Segoe UI Emoji" font-size="36.46470032948359px" fill="#364fc7" text-anchor="middle" style="white-space: pre;" direction="ltr">Reading </text><text x="139.62236301092736" y="79.89342196097712" font-family="Cascadia, Segoe UI Emoji" font-size="36.46470032948359px" fill="#364fc7" text-anchor="middle" style="white-space: pre;" direction="ltr">(60m per day)</text></g><g stroke-linecap="round"><g transform="translate(189.055570292305 792.8022238822905) rotate(0 391.1366969579411 -282.4231864359592)"><path d="M0 0 C64.52 -16.41, 256.74 -4.3, 387.12 -98.44 C517.5 -192.58, 716.41 -487.11, 782.27 -564.85 M0 0 C64.52 -16.41, 256.74 -4.3, 387.12 -98.44 C517.5 -192.58, 716.41 -487.11, 782.27 -564.85" stroke="#c92a2a" stroke-width="4" fill="none"></path></g></g><g transform="translate(861.6722927373398 10) rotate(0 170.21013363446286 96.97630403535209)"><text x="170.21013363446284" y="30.790521614140843" font-family="Cascadia, Segoe UI Emoji" font-size="32.19633874425979px" fill="#c92a2a" text-anchor="middle" style="white-space: pre;" direction="ltr">Reading </text><text x="170.21013363446284" y="69.58104322828169" font-family="Cascadia, Segoe UI Emoji" font-size="32.19633874425979px" fill="#c92a2a" text-anchor="middle" style="white-space: pre;" direction="ltr">(30m per day)</text><text x="170.21013363446284" y="108.37156484242253" font-family="Cascadia, Segoe UI Emoji" font-size="32.19633874425979px" fill="#c92a2a" text-anchor="middle" style="white-space: pre;" direction="ltr">+</text><text x="170.21013363446284" y="147.16208645656337" font-family="Cascadia, Segoe UI Emoji" font-size="32.19633874425979px" fill="#c92a2a" text-anchor="middle" style="white-space: pre;" direction="ltr">Spaced Repetition </text><text x="170.21013363446284" y="185.95260807070423" font-family="Cascadia, Segoe UI Emoji" font-size="32.19633874425979px" fill="#c92a2a" text-anchor="middle" style="white-space: pre;" direction="ltr">(30m per day) </text></g><g transform="translate(943.2975186811777 805.316063539387) rotate(0 77.03046933878363 26.3030870912919)"><text x="77.03046933878359" y="42.60617418258391" font-family="Cascadia, Segoe UI Emoji" font-size="43.493195972703354px" fill="#495057" text-anchor="middle" style="white-space: pre;" direction="ltr">Year 5</text></g><g transform="translate(10 78.6319333319434) rotate(0 128 52)"><text x="128" y="42" font-family="Cascadia, Segoe UI Emoji" font-size="43.493195972703354px" fill="#495057" text-anchor="middle" style="white-space: pre;" direction="ltr">Knowledge </text><text x="128" y="94" font-family="Cascadia, Segoe UI Emoji" font-size="43.493195972703354px" fill="#495057" text-anchor="middle" style="white-space: pre;" direction="ltr">Gained</text></g></svg>