<svg height="35.83971mm" viewBox="0 0 191.15273 35.839711" width="191.15273mm" xmlns="http://www.w3.org/2000/svg"><g transform="translate(-69.68956 14.93077)"><path d="m156.58838-7.8362952-75.949232 20.3483752" fill="none" stroke="#000" stroke-width=".264583"/><path d="m158.00711-5.7571857-26.17312 15.9268797" fill="none" stroke="#000" stroke-width=".264583"/><path d="m164.81069-5.7571857 13.70336 16.1158677" fill="none" stroke="#000" stroke-width=".264583"/><path d="m166.13361-7.8833017 63.78798 20.0264827" fill="none" stroke="#d7d7d7" stroke-width=".265"/><g stroke-width=".264583"><text font-family="DejaVu Sans" font-size="4.938889" font-stretch="semi-condensed" letter-spacing="0" word-spacing="0" x="167.80621" y="-10.630416"><tspan font-family="DejaVu Sans" font-size="4.938889" font-stretch="semi-condensed" stroke-width=".264583" x="167.80621" y="-10.630416">Online Shopping</tspan><tspan font-family="DejaVu Sans" font-size="4.938889" font-stretch="semi-condensed" stroke-width=".264583" x="167.80621" y="-4.456805">Service</tspan></text><text font-family="DejaVu Sans" font-size="4.938889" font-stretch="semi-condensed" letter-spacing="0" word-spacing="0" x="82.363373" y="13.694638"><tspan font-family="DejaVu Sans" font-size="4.938889" font-stretch="semi-condensed" stroke-width=".264583" x="82.363373" y="13.694638">Accounts</tspan><tspan font-family="DejaVu Sans" font-size="4.938889" font-stretch="semi-condensed" stroke-width=".264583" x="82.363373" y="19.86825">Service</tspan></text><text font-family="DejaVu Sans" font-size="4.938889" font-stretch="semi-condensed" letter-spacing="0" word-spacing="0" x="135.73387" y="13.291906"><tspan font-family="DejaVu Sans" font-size="4.938889" font-stretch="semi-condensed" stroke-width=".264583" x="135.73387" y="13.291906">Product</tspan><tspan font-family="DejaVu Sans" font-size="4.938889" font-stretch="semi-condensed" stroke-width=".264583" x="135.73387" y="19.465517">Catalog</tspan></text><text font-family="DejaVu Sans" font-size="4.938889" font-stretch="semi-condensed" letter-spacing="0" word-spacing="0" x="189.18777" y="13.727195"><tspan font-family="DejaVu Sans" font-size="4.938889" font-stretch="semi-condensed" stroke-width=".264583" x="189.18777" y="13.727195">Cart</tspan><tspan font-family="DejaVu Sans" font-size="4.938889" font-stretch="semi-condensed" stroke-width=".264583" x="189.18777" y="19.900806">Service</tspan></text><text style="font-stretch:semi-condensed;font-size:4.938889;font-family:DejaVu Sans;letter-spacing:0;word-spacing:0;fill:#b7b7b7" x="244.64619" y="13.770602"><tspan fill="#b7b7b7" font-family="DejaVu Sans" font-size="4.938889" font-stretch="semi-condensed" stroke-width=".264583" x="244.64619" y="13.770602">Order</tspan><tspan fill="#b7b7b7" font-family="DejaVu Sans" font-size="4.938889" font-stretch="semi-condensed" stroke-width=".264583" x="244.64619" y="19.944214">Service</tspan></text></g><path d="m164.15292-13.978734a5.1449385 5.1449385 0 0 1 1.57515 7.1034019 5.1449385 5.1449385 0 0 1 -7.10336 1.5753298 5.1449385 5.1449385 0 0 1 -1.57552-7.1033197 5.1449385 5.1449385 0 0 1 7.10328-1.575701" fill="#ffa7ce" stroke="#6c645a" stroke-linejoin="round" stroke-width=".293"/><path d="m131.83399 10.169694a5.7462945 5.7462945 0 0 1 1.75925 7.933669 5.7462945 5.7462945 0 0 1 -7.93363 1.759459 5.7462945 5.7462945 0 0 1 -1.75966-7.933577 5.7462945 5.7462945 0 0 1 7.93353-1.759874" fill="#fe8081" stroke="#6c645a" stroke-linejoin="round" stroke-width=".293"/><path d="m78.669634 10.169694a5.7462945 5.7462945 0 0 1 1.759251 7.933669 5.7462945 5.7462945 0 0 1 -7.933623 1.759459 5.7462945 5.7462945 0 0 1 -1.759667-7.933577 5.7462945 5.7462945 0 0 1 7.933531-1.759874" fill="#fe8081" stroke="#6c645a" stroke-linejoin="round" stroke-width=".293"/><path d="m184.99834 10.169694a5.7462945 5.7462945 0 0 1 1.75925 7.933669 5.7462945 5.7462945 0 0 1 -7.93362 1.759459 5.7462945 5.7462945 0 0 1 -1.75967-7.933577 5.7462945 5.7462945 0 0 1 7.93353-1.759874" fill="#fe8081" stroke="#6c645a" stroke-linejoin="round" stroke-width=".293"/><path d="m238.16271 10.169694a5.7462945 5.7462945 0 0 1 1.75925 7.933669 5.7462945 5.7462945 0 0 1 -7.93363 1.759459 5.7462945 5.7462945 0 0 1 -1.75966-7.933577 5.7462945 5.7462945 0 0 1 7.93353-1.759874" fill="#edd8d8" stroke="#bdb7af" stroke-linejoin="round" stroke-width=".293"/></g></svg>